<svg width="122" height="38" viewBox="0 0 122 38" fill="none" xmlns="http://www.w3.org/2000/svg">
<g clip-path="url(#clip0_123_4691)">
<path d="M11.5538 28.5566C11.3708 28.7715 11.1768 28.976 10.9726 29.1692C10.7205 29.4115 10.1702 29.7314 9.3218 30.1288C8.48256 30.5206 7.57232 30.7214 6.65217 30.7177C4.69153 30.7177 3.09326 30.0343 1.85736 28.6675C0.621453 27.3007 0.0023341 25.4831 0 23.2148V12.542H4.72655V22.7295C4.71311 23.1865 4.79042 23.6415 4.95365 24.0661C5.11688 24.4907 5.36255 24.876 5.67535 25.1978C5.98763 25.5186 6.35926 25.7705 6.76782 25.9383C7.17639 26.106 7.61344 26.1861 8.05263 26.1738C9.12398 26.1738 9.97593 25.8103 10.6085 25.0833C11.241 24.3562 11.5573 23.3263 11.5573 21.9934V12.542H16.2803V30.3542H11.5538V28.5566Z" fill="#1E2D3C"/>
<path d="M28.0409 30.0916C27.1902 29.6711 26.5885 29.2543 26.2361 28.8411L25.7109 28.1831V37.998H20.9844V12.5411H25.7109V14.7222C25.7749 14.6272 25.8463 14.5378 25.9245 14.455C26.0214 14.3496 26.2262 14.1515 26.5389 13.8607C26.8536 13.5714 27.1929 13.3122 27.5525 13.0864C27.9994 12.8194 28.4762 12.6106 28.9722 12.4648C29.5597 12.2799 30.1703 12.1868 30.7841 12.1885C33.0015 12.1885 34.9306 13.0852 36.5715 14.8785C38.2123 16.6718 39.0293 18.8638 39.0223 21.4545C39.0223 24.0463 38.2053 26.2383 36.5715 28.0305C34.9376 29.8226 33.0085 30.7181 30.7841 30.7168C29.8356 30.7236 28.898 30.508 28.0409 30.0861V30.0916ZM26.9381 17.9284C26.1211 18.8445 25.7127 20.0186 25.7127 21.4509C25.7127 22.8831 26.1211 24.0603 26.9381 24.9824C27.3126 25.4171 27.7713 25.7648 28.2841 26.0029C28.7969 26.241 29.3523 26.364 29.914 26.364C30.4758 26.364 31.0312 26.241 31.544 26.0029C32.0568 25.7648 32.5155 25.4171 32.89 24.9824C33.707 24.0615 34.1154 22.8843 34.1154 21.4509C34.1154 20.0174 33.707 18.8432 32.89 17.9284C32.514 17.4962 32.0549 17.1508 31.5422 16.9144C31.0296 16.6779 30.475 16.5558 29.914 16.5558C29.3531 16.5558 28.7985 16.6779 28.2858 16.9144C27.7732 17.1508 27.3141 17.4962 26.9381 17.9284Z" fill="#1E2D3C"/>
<path d="M51.9703 17.8122C51.9003 17.7177 51.7953 17.5887 51.636 17.4214C51.3442 17.1604 51.019 16.9427 50.6697 16.7744C50.2077 16.5148 49.6912 16.3775 49.1659 16.3745C48.5159 16.3745 48.003 16.5193 47.6272 16.8089C47.2514 17.0985 47.0635 17.433 47.0635 17.8122C47.0635 18.2739 47.3313 18.6586 47.867 18.9664C48.49 19.3112 49.1459 19.5878 49.8241 19.7916C50.592 20.0339 51.3699 20.3241 52.1576 20.6622C52.9519 21.0062 53.6386 21.5725 54.141 22.298C54.6767 23.048 54.9446 23.9799 54.9446 25.0934C54.9446 26.6917 54.3377 28.0288 53.124 29.1048C51.9102 30.1808 50.2431 30.7182 48.1226 30.717C47.2462 30.7216 46.3729 30.608 45.5247 30.3789C44.8246 30.2043 44.1512 29.9297 43.5238 29.5628C43.058 29.2762 42.6102 28.9593 42.1829 28.6141C41.8828 28.3784 41.605 28.1137 41.3531 27.8234L41.1133 27.4508L43.7391 24.7354C43.8704 24.9288 44.0161 25.1111 44.175 25.2806C44.556 25.6305 44.9784 25.9286 45.4319 26.1676C46.0349 26.53 46.7187 26.7224 47.4153 26.7256C48.1681 26.7256 48.7353 26.5747 49.1169 26.273C49.2976 26.1396 49.4442 25.9625 49.5439 25.7569C49.6437 25.5513 49.6936 25.3236 49.6893 25.0934C49.6893 24.6087 49.4215 24.2034 48.8858 23.8775C48.2632 23.5146 47.6016 23.2291 46.9147 23.0268C46.1208 22.7824 45.3416 22.4892 44.5812 22.149C43.8065 21.8014 43.1321 21.2509 42.624 20.5513C42.0884 19.8243 41.8205 18.9155 41.8205 17.8249C41.8205 16.3927 42.4624 15.0968 43.7461 13.9372C45.0299 12.7775 46.6054 12.1977 48.4727 12.1977C49.5988 12.1852 50.7146 12.4213 51.7463 12.8902C52.7429 13.3519 53.435 13.8014 53.8224 14.2389L54.4211 14.9314L51.9703 17.8122Z" fill="#1E2D3C"/>
<path d="M60.1257 14.9696C61.9603 13.1181 64.1368 12.1918 66.6553 12.1905C67.515 12.1861 68.3705 12.3147 69.1936 12.5722C69.8896 12.7777 70.5543 13.0836 71.1683 13.481C71.6451 13.8039 72.1018 14.1578 72.5355 14.5407C72.8586 14.8147 73.152 15.1242 73.4108 15.464L73.6663 15.8275L70.6904 18.9174C70.5557 18.6863 70.4042 18.4663 70.237 18.2594C70.0269 17.9892 69.5712 17.6372 68.8698 17.2034C68.0155 16.6674 67.0095 16.4534 66.0211 16.5974C65.0326 16.7414 64.1222 17.2346 63.443 17.9941C62.5809 18.9279 62.1003 20.172 62.1019 21.4656C62.1035 22.7592 62.5873 24.002 63.4518 24.9335C63.8592 25.3905 64.3539 25.7544 64.9042 26.0019C65.4546 26.2494 66.0486 26.3752 66.6483 26.3712C67.422 26.3719 68.1835 26.1706 68.8628 25.786C69.4369 25.4945 69.9552 25.0973 70.3928 24.6137L70.8549 24.0102L73.6558 27.1001C73.5876 27.1946 73.493 27.3273 73.374 27.4981C73.1221 27.8126 72.8444 28.1039 72.5442 28.3688C72.1124 28.7783 71.6434 29.1435 71.1438 29.4593C70.5246 29.8251 69.8675 30.1165 69.1849 30.3281C68.364 30.5978 67.5076 30.7327 66.6466 30.728C64.1281 30.728 61.9515 29.8016 60.1169 27.9489C58.2823 26.0962 57.3644 23.9339 57.3633 21.462C57.3633 18.9877 58.2812 16.8254 60.1169 14.9751" fill="#1E2D3C"/>
<path d="M86.2639 28.5559C86.1274 28.7213 85.9366 28.9194 85.6915 29.1684C85.4464 29.4174 84.9142 29.73 84.0932 30.1281C83.2906 30.5181 82.4148 30.7192 81.5286 30.717C79.8201 30.717 78.4295 30.2226 77.357 29.2338C76.2845 28.2451 75.7488 27.0473 75.75 25.6405C75.75 24.1864 76.2005 22.9747 77.1014 22.0053C78.0024 21.036 79.2447 20.4028 80.8284 20.106L86.2552 19.0936C86.2655 18.7481 86.201 18.4047 86.0665 18.0885C85.932 17.7724 85.7308 17.4916 85.4779 17.2669C84.9551 16.7943 84.2257 16.5581 83.2897 16.5581C82.5599 16.5483 81.8367 16.7027 81.1698 17.0106C80.5273 17.3124 80.0809 17.6304 79.8271 17.9412L79.4332 18.3684L76.8108 15.6529C76.8791 15.5584 76.9737 15.4312 77.0927 15.2712C77.3422 14.9758 77.6126 14.6999 77.9015 14.446C78.3197 14.0533 78.7748 13.705 79.2599 13.4064C79.8687 13.0522 80.5148 12.7723 81.1855 12.5721C81.9794 12.3179 82.8056 12.1893 83.6363 12.1904C85.8024 12.1904 87.5693 12.8623 88.9371 14.2061C90.3048 15.5499 90.987 17.2366 90.9835 19.2662V30.3534H86.2569L86.2639 28.5559ZM85.3151 25.6714C85.9488 24.9674 86.2651 23.9883 86.2639 22.7342V22.1889L82.4127 22.9159C81.1289 23.128 80.487 23.7944 80.487 24.9153C80.487 26.127 81.2456 26.7328 82.7628 26.7328C83.8341 26.7328 84.6861 26.3808 85.3186 25.6768" fill="#1E2D3C"/>
<path d="M100.435 4.91309H95.6992V30.3664H100.435V4.91309Z" fill="#1E2D3C"/>
<path d="M109.001 23.0832C109.189 24.0637 109.718 24.9382 110.487 25.5405C111.296 26.2094 112.316 26.5438 113.547 26.5438C114.399 26.5506 115.241 26.3645 116.017 25.9986C116.775 25.635 117.308 25.2715 117.615 24.908L118.112 24.3627L120.563 27.6344L120.248 27.9615C119.958 28.2327 119.653 28.4847 119.332 28.7158C118.862 29.0739 118.364 29.3918 117.844 29.6664C117.193 29.9916 116.507 30.2386 115.802 30.4025C114.952 30.6156 114.08 30.7211 113.205 30.717C112.009 30.738 110.822 30.5072 109.714 30.0386C108.606 29.5701 107.601 28.8734 106.76 27.9906C104.982 26.173 104.094 23.992 104.094 21.4474C104.106 18.9907 105.052 16.6385 106.727 14.9025C108.401 13.1666 110.668 12.1873 113.034 12.1777C115.485 12.1777 117.527 13.0259 119.161 14.7223C120.795 16.4187 121.612 18.5392 121.612 21.0838L121.437 23.0723L109.001 23.0832ZM110.478 17.2851C109.769 17.9016 109.254 18.7246 109.001 19.648H116.878C116.713 18.7347 116.252 17.9077 115.57 17.3051C114.863 16.6825 113.958 16.3537 113.03 16.3818C112.101 16.3565 111.194 16.679 110.475 17.2906" fill="#1E2D3C"/>
<path d="M25.7238 7.63199H11.5547L18.6392 0L25.7238 7.63199Z" fill="#1E78F0"/>
</g>
<defs>
<clipPath id="clip0_123_4691">
<rect width="121.6" height="38" fill="white"/>
</clipPath>
</defs>
</svg>
